<svg width="414" height="414" viewBox="0 0 414 414" fill="none" xmlns="http://www.w3.org/2000/svg">
<rect width="414" height="414" rx="45" fill="#090128"/>
<g clip-path="url(#clip0_69_21)">
<path d="M256.125 141.333L174.25 190.583L187.694 182.457C218.151 163.578 259.94 174.413 278.968 204.652C283.492 211.841 286.546 219.859 287.954 228.241C289.362 236.623 289.095 245.201 287.17 253.479C285.244 261.756 281.698 269.568 276.737 276.461C271.776 283.353 265.499 289.19 258.27 293.631L175.527 344.949C145.07 363.845 104.918 354.652 85.8906 324.412C81.3663 317.224 78.311 309.207 76.9019 300.826C75.4927 292.445 75.7579 283.867 77.6818 275.589C79.6058 267.312 83.1504 259.5 88.1098 252.607C93.0692 245.713 99.3447 239.876 106.572 235.434L110.83 232.807" stroke="white" stroke-width="20" stroke-linecap="round" stroke-linejoin="round"/>
<path d="M141.5 289.083L223.375 239.833L209.915 247.976C179.457 266.872 137.685 256.037 118.641 225.797C114.117 218.608 111.063 210.59 109.655 202.209C108.247 193.827 108.513 185.248 110.439 176.971C112.364 168.693 115.911 160.881 120.872 153.989C125.833 147.096 132.11 141.26 139.339 136.819L222.098 85.4838C252.555 66.6047 292.69 75.798 311.735 106.038C316.258 113.226 319.312 121.244 320.72 129.626C322.128 138.008 321.862 146.586 319.936 154.864C318.011 163.141 314.464 170.953 309.503 177.846C304.542 184.739 298.265 190.575 291.037 195.016L286.779 197.643" stroke="white" stroke-width="20" stroke-linecap="round" stroke-linejoin="round"/>
</g>
<defs>
<clipPath id="clip0_69_21">
<rect width="393" height="394" fill="white" transform="translate(10.5 10)"/>
</clipPath>
</defs>
</svg>
