<svg width="450" height="450" viewBox="0 0 450 450" fill="none" xmlns="http://www.w3.org/2000/svg">
<rect width="450" height="450" rx="45" fill="url(#paint0_radial_1_2)"/>
<path d="M134.972 400C87.9717 400 122.12 279.735 54.6204 279.735C-12.8795 279.735 466.422 279.735 394.547 279.735C322.672 279.735 363.571 399.735 314.071 399.735C264.571 399.735 181.972 400 134.972 400Z" fill="white" stroke="white" stroke-width="27" stroke-linecap="round" stroke-linejoin="round"/>
<g filter="url(#filter0_d_1_2)">
<path d="M225 49.3983C225 49.3983 205 71.9052 205 99.865C205 127.825 245 152.304 245 179.629C245 206.954 225.281 229.398 225.281 229.398" stroke="white" stroke-width="27" stroke-linecap="round" stroke-linejoin="round"/>
</g>
<g filter="url(#filter1_d_1_2)">
<path d="M305 49.3983C305 49.3983 285 71.9052 285 99.865C285 127.825 325 152.304 325 179.629C325 206.954 305.281 229.398 305.281 229.398" stroke="white" stroke-width="27" stroke-linecap="round" stroke-linejoin="round"/>
</g>
<g filter="url(#filter2_d_1_2)">
<path d="M145 49.3983C145 49.3983 125 71.9052 125 99.865C125 127.825 165 152.304 165 179.629C165 206.954 145.281 229.398 145.281 229.398" stroke="white" stroke-width="27" stroke-linecap="round" stroke-linejoin="round"/>
</g>
<circle cx="401.915" cy="279.735" r="13.5" fill="white"/>
<path d="M297.7 293.6C297.7 304.646 306.654 313.6 317.7 313.6C328.746 313.6 337.7 304.646 337.7 293.6L297.7 293.6ZM297.7 265.87L297.7 293.6L337.7 293.6L337.7 265.87L297.7 265.87Z" fill="#090128"/>
<path d="M217.712 332.864C217.712 343.91 226.667 352.864 237.712 352.864C248.758 352.864 257.712 343.91 257.712 332.864L217.712 332.864ZM217.712 265.87L217.712 332.864L257.712 332.864L257.712 265.87L217.712 265.87Z" fill="#090128"/>
<path d="M357.195 265.868L197.802 266.044" stroke="#090128" stroke-width="40"/>
<path d="M217.211 286.247C217.211 297.016 208.481 305.747 197.712 305.747C186.943 305.747 178.213 297.016 178.213 286.247C178.213 275.477 186.943 266.747 197.712 266.747C208.481 266.747 217.211 275.477 217.211 286.247Z" fill="white" stroke="white"/>
<path d="M297.206 286.247C297.206 297.016 288.476 305.747 277.707 305.747C266.938 305.747 258.208 297.016 258.208 286.247C258.208 275.477 266.938 266.747 277.707 266.747C288.476 266.747 297.206 275.477 297.206 286.247Z" fill="white" stroke="white"/>
<path d="M377.192 286.247C377.192 297.016 368.462 305.747 357.693 305.747C346.924 305.747 338.194 297.016 338.194 286.247C338.194 275.477 346.924 266.747 357.693 266.747C368.462 266.747 377.192 275.477 377.192 286.247Z" fill="white" stroke="white"/>
<circle cx="48.0853" cy="279.747" r="13.5" fill="white"/>
<defs>
<filter id="filter0_d_1_2" x="187.5" y="35.8982" width="75" height="215" filterUnits="userSpaceOnUse" color-interpolation-filters="sRGB">
<feFlood flood-opacity="0" result="BackgroundImageFix"/>
<feColorMatrix in="SourceAlpha" type="matrix" values="0 0 0 0 0 0 0 0 0 0 0 0 0 0 0 0 0 0 127 0" result="hardAlpha"/>
<feOffset dy="4"/>
<feGaussianBlur stdDeviation="2"/>
<feComposite in2="hardAlpha" operator="out"/>
<feColorMatrix type="matrix" values="0 0 0 0 0 0 0 0 0 0 0 0 0 0 0 0 0 0 0.25 0"/>
<feBlend mode="normal" in2="BackgroundImageFix" result="effect1_dropShadow_1_2"/>
<feBlend mode="normal" in="SourceGraphic" in2="effect1_dropShadow_1_2" result="shape"/>
</filter>
<filter id="filter1_d_1_2" x="267.5" y="35.8982" width="75" height="215" filterUnits="userSpaceOnUse" color-interpolation-filters="sRGB">
<feFlood flood-opacity="0" result="BackgroundImageFix"/>
<feColorMatrix in="SourceAlpha" type="matrix" values="0 0 0 0 0 0 0 0 0 0 0 0 0 0 0 0 0 0 127 0" result="hardAlpha"/>
<feOffset dy="4"/>
<feGaussianBlur stdDeviation="2"/>
<feComposite in2="hardAlpha" operator="out"/>
<feColorMatrix type="matrix" values="0 0 0 0 0 0 0 0 0 0 0 0 0 0 0 0 0 0 0.25 0"/>
<feBlend mode="normal" in2="BackgroundImageFix" result="effect1_dropShadow_1_2"/>
<feBlend mode="normal" in="SourceGraphic" in2="effect1_dropShadow_1_2" result="shape"/>
</filter>
<filter id="filter2_d_1_2" x="107.5" y="35.8982" width="75" height="215" filterUnits="userSpaceOnUse" color-interpolation-filters="sRGB">
<feFlood flood-opacity="0" result="BackgroundImageFix"/>
<feColorMatrix in="SourceAlpha" type="matrix" values="0 0 0 0 0 0 0 0 0 0 0 0 0 0 0 0 0 0 127 0" result="hardAlpha"/>
<feOffset dy="4"/>
<feGaussianBlur stdDeviation="2"/>
<feComposite in2="hardAlpha" operator="out"/>
<feColorMatrix type="matrix" values="0 0 0 0 0 0 0 0 0 0 0 0 0 0 0 0 0 0 0.25 0"/>
<feBlend mode="normal" in2="BackgroundImageFix" result="effect1_dropShadow_1_2"/>
<feBlend mode="normal" in="SourceGraphic" in2="effect1_dropShadow_1_2" result="shape"/>
</filter>
<radialGradient id="paint0_radial_1_2" cx="0" cy="0" r="1" gradientUnits="userSpaceOnUse" gradientTransform="translate(225 225) rotate(90) scale(225)">
<stop stop-color="#11142C"/>
<stop offset="1" stop-color="#000211"/>
</radialGradient>
</defs>
</svg>
