<svg width="1024" height="768" viewBox="0 0 1024 768" fill="none" xmlns="http://www.w3.org/2000/svg">
<rect width="1024" height="768" rx="45" fill="#090128"/>
<g clip-path="url(#clip0_68_2)">
<path d="M561.125 318.333L479.25 367.583L492.694 359.457C523.151 340.578 564.94 351.413 583.968 381.652C588.492 388.841 591.546 396.859 592.954 405.241C594.362 413.623 594.095 422.201 592.17 430.479C590.244 438.756 586.698 446.568 581.737 453.461C576.776 460.353 570.499 466.19 563.27 470.631L480.527 521.949C450.07 540.845 409.918 531.652 390.891 501.412C386.366 494.224 383.311 486.207 381.902 477.826C380.493 469.445 380.758 460.867 382.682 452.589C384.606 444.312 388.15 436.5 393.11 429.607C398.069 422.713 404.345 416.876 411.572 412.434L415.83 409.807" stroke="white" stroke-width="20" stroke-linecap="round" stroke-linejoin="round"/>
<path d="M446.5 466.083L528.375 416.833L514.915 424.976C484.457 443.872 442.685 433.037 423.64 402.797C419.117 395.608 416.063 387.59 414.655 379.209C413.247 370.827 413.513 362.248 415.439 353.971C417.364 345.693 420.911 337.881 425.872 330.989C430.833 324.096 437.11 318.26 444.338 313.819L527.098 262.484C557.555 243.605 597.69 252.798 616.734 283.037C621.258 290.226 624.312 298.244 625.72 306.626C627.128 315.008 626.862 323.586 624.936 331.864C623.011 340.141 619.464 347.953 614.503 354.846C609.542 361.739 603.265 367.575 596.036 372.016L591.779 374.643" stroke="white" stroke-width="20" stroke-linecap="round" stroke-linejoin="round"/>
</g>
<defs>
<clipPath id="clip0_68_2">
<rect width="393" height="394" fill="white" transform="translate(315.5 187)"/>
</clipPath>
</defs>
</svg>
