<svg viewBox="0 0 600 600" fill="none" xmlns="http://www.w3.org/2000/svg">
<rect width="600" height="600" rx="300" fill="white"/>
<path d="M293.379 198H315.133C336.322 198 346.917 198 355.01 201.706C362.128 204.965 367.917 210.167 371.543 216.564C375.667 223.837 375.667 233.358 375.667 252.4V266L424.411 239.717C439.414 231.627 446.916 227.582 453.089 228.099C458.471 228.55 463.381 231.048 466.58 234.964C470.25 239.454 470.25 247.316 470.25 263.04V336.96C470.25 345.543 470.25 351.785 469.652 356.413M129.75 147L186.501 198.001M186.501 198.001C167.804 198.014 158.004 198.227 150.407 201.706C143.288 204.965 137.501 210.167 133.874 216.564C129.75 223.837 129.75 233.358 129.75 252.4V347.6C129.75 366.642 129.75 376.163 133.874 383.436C137.501 389.833 143.288 395.035 150.407 398.294C158.5 402 169.095 402 190.283 402H315.133C336.322 402 346.917 402 355.01 398.294C362.128 395.035 367.917 389.833 371.543 383.436C373.868 379.336 374.882 374.523 375.324 367.692M186.501 198.001L375.324 367.692M470.25 453L375.324 367.692" stroke="black" stroke-width="45" stroke-linecap="round" stroke-linejoin="round"/>
</svg>
