<svg viewBox="0 0 600 600" fill="none" xmlns="http://www.w3.org/2000/svg">
<rect width="600" height="600" rx="300" fill="white"/>
<path d="M375.667 266L424.411 239.717C439.414 231.627 446.916 227.582 453.089 228.099C458.471 228.55 463.381 231.048 466.58 234.964C470.25 239.454 470.25 247.316 470.25 263.04V336.96C470.25 352.683 470.25 360.545 466.58 365.037C463.381 368.952 458.471 371.451 453.089 371.901C446.916 372.418 439.414 368.374 424.411 360.284L375.667 334M190.283 402H315.133C336.322 402 346.917 402 355.01 398.294C362.128 395.035 367.916 389.833 371.543 383.436C375.667 376.163 375.667 366.642 375.667 347.6V252.4C375.667 233.358 375.667 223.837 371.543 216.564C367.916 210.167 362.128 204.965 355.01 201.706C346.917 198 336.322 198 315.133 198H190.283C169.095 198 158.5 198 150.407 201.706C143.288 204.965 137.501 210.167 133.874 216.564C129.75 223.837 129.75 233.358 129.75 252.4V347.6C129.75 366.642 129.75 376.163 133.874 383.436C137.501 389.833 143.288 395.035 150.407 398.294C158.5 402 169.095 402 190.283 402Z" stroke="black" stroke-width="45" stroke-linecap="round" stroke-linejoin="round"/>
</svg>
