<svg viewBox="0 0 600 600" fill="none" xmlns="http://www.w3.org/2000/svg">
<g clip-path="url(#clip0_33_21)">
<rect width="600" height="600" rx="300" fill="white"/>
<path d="M353.865 253.027V174.264C353.865 144.605 329.823 120.562 300.163 120.562C279.083 120.562 260.84 132.708 252.05 150.383M300.163 424.873V478.575M228.56 478.575H371.766M139.057 138.463L461.269 460.674M174.866 263.767C174.866 263.767 174.866 263.767 174.5 299.569C173.803 367.818 232.225 424.873 300.881 424.873C345.904 424.873 369.708 407.248 388.683 388.088M423.513 317.695C428.266 288.116 425.468 263.767 425.468 263.767M300.163 353.271C270.503 353.271 246.461 329.228 246.461 299.569V245.867L292.31 291.692L338.159 337.518C328.439 347.251 315.004 353.271 300.163 353.271Z" stroke="black" stroke-width="45" stroke-linecap="round" stroke-linejoin="round"/>
</g>
<defs>
<clipPath id="clip0_33_21">
<rect width="600" height="600" rx="300" fill="white"/>
</clipPath>
</defs>
</svg>
